<svg width="240" height="240" viewBox="0 0 240 240" fill="none" xmlns="http://www.w3.org/2000/svg">
<path d="M115.78 35H144.23C153.83 35 161.36 35 167.39 35.5C173.54 36 178.59 37.03 183.16 39.36C190.686 43.1949 196.805 49.3139 200.64 56.84C202.97 61.41 204.01 66.46 204.51 72.6C205 78.65 205 86.16 205 95.78V124.23C205 133.83 205 141.36 204.5 147.39C204 153.54 202.97 158.59 200.64 163.16C196.805 170.686 190.686 176.805 183.16 180.64C178.59 182.97 173.54 184 167.4 184.51C161.36 185 153.84 185 144.23 185H115.78C106.17 185 98.65 185 92.61 184.5C86.46 184 81.41 182.97 76.84 180.64C69.3139 176.805 63.1949 170.686 59.36 163.16C57.03 158.59 56 153.54 55.49 147.4C55 141.36 55 133.83 55 124.22V95.78C55 86.16 55 78.65 55.5 72.6C56 66.46 57.03 61.4 59.36 56.84C63.1949 49.3139 69.3139 43.1949 76.84 39.36C81.41 37.03 86.46 36 92.61 35.49C98.65 35 106.17 35 115.78 35ZM93.42 45.46C87.89 45.91 84.3 46.78 81.38 48.27C75.7354 51.1462 71.1462 55.7354 68.27 61.38C66.78 64.3 65.91 67.89 65.46 73.42C65 79 65 86.12 65 96V124C65 133.88 65 141 65.46 146.58C65.91 152.11 66.78 155.7 68.27 158.62C71.1462 164.265 75.7354 168.854 81.38 171.73C84.3 173.22 87.89 174.09 93.42 174.54C99 175 106.12 175 116 175H144C153.88 175 161 175 166.58 174.54C172.11 174.09 175.7 173.22 178.62 171.73C184.265 168.854 188.854 164.265 191.73 158.62C193.22 155.7 194.09 152.11 194.54 146.58C195 141 195 133.88 195 124V96C195 86.12 195 79 194.54 73.42C194.09 67.89 193.22 64.3 191.73 61.38C188.854 55.7354 184.265 51.1462 178.62 48.27C175.7 46.78 172.11 45.91 166.58 45.46C161 45 153.88 45 144 45H116C106.12 45 99 45 93.42 45.46Z" fill="#71717B"/>
<path d="M115 75C112.348 75 109.804 76.0536 107.929 77.9289C106.054 79.8043 105 82.3478 105 85C105 87.6522 106.054 90.1957 107.929 92.0711C109.804 93.9464 112.348 95 115 95C117.652 95 120.196 93.9464 122.071 92.0711C123.946 90.1957 125 87.6522 125 85C125 82.3478 123.946 79.8043 122.071 77.9289C120.196 76.0536 117.652 75 115 75ZM95 85C95 79.6957 97.1071 74.6086 100.858 70.8579C104.609 67.1071 109.696 65 115 65C120.304 65 125.391 67.1071 129.142 70.8579C132.893 74.6086 135 79.6957 135 85C135 90.3043 132.893 95.3914 129.142 99.1421C125.391 102.893 120.304 105 115 105C109.696 105 104.609 102.893 100.858 99.1421C97.1071 95.3914 95 90.3043 95 85Z" fill="#71717B"/>
<path d="M67.19 60.4956C67.4247 61.1101 67.5359 61.7648 67.5171 62.4224C67.4983 63.0799 67.35 63.7273 67.0806 64.3274C66.8112 64.9275 66.426 65.4685 65.9472 65.9195C65.4683 66.3705 64.9052 66.7226 64.29 66.9556C58.6128 69.1253 53.7286 72.9681 50.2839 77.9753C46.8392 82.9825 44.9966 88.9179 45 94.9956V129.996C45 148.996 45.06 157.316 47.2 163.896C49.3942 170.652 53.1567 176.793 58.1798 181.816C63.2028 186.839 69.3437 190.601 76.1 192.796C82.68 194.936 91 194.996 110 194.996H145C151.014 194.997 156.89 193.192 161.865 189.812C166.84 186.433 170.685 181.637 172.9 176.046C173.142 175.435 173.502 174.878 173.96 174.407C174.418 173.935 174.963 173.558 175.567 173.298C176.17 173.037 176.818 172.898 177.475 172.888C178.132 172.879 178.784 172.998 179.395 173.241C180.006 173.483 180.563 173.843 181.034 174.301C181.505 174.758 181.882 175.304 182.143 175.907C182.403 176.51 182.542 177.159 182.552 177.816C182.562 178.473 182.442 179.125 182.2 179.736C179.245 187.189 174.119 193.583 167.485 198.088C160.852 202.592 153.018 204.999 145 204.996H108.83C91.33 204.996 81.3 204.996 73 202.296C64.7488 199.613 57.2493 195.016 51.1143 188.881C44.9792 182.746 40.3826 175.247 37.7 166.996C35 158.696 35 148.666 35 131.166V94.9956C34.9976 86.892 37.4565 78.9788 42.0512 72.3037C46.6459 65.6286 53.1596 60.5065 60.73 57.6156C61.3439 57.3806 61.9981 57.2689 62.6551 57.2871C63.3122 57.3052 63.9592 57.4526 64.5592 57.7211C65.1593 57.9895 65.7005 58.3736 66.1519 58.8514C66.6033 59.3292 66.9561 59.8813 67.19 60.4956Z" fill="#71717B"/>
<path d="M157.242 96.0922C161.829 94.6359 166.754 94.6359 171.342 96.0922C174.262 97.0222 176.742 98.6622 179.262 100.772C181.692 102.802 184.462 105.532 187.842 108.892L199.572 120.482L199.842 120.742C201.042 121.922 202.172 123.042 203.012 124.392C203.752 125.572 204.302 126.882 204.632 128.242C205.012 129.802 205.002 131.382 204.992 133.002V133.362C204.932 147.312 204.602 156.562 200.592 164.082C196.655 171.386 190.508 177.256 183.032 180.852C178.482 183.062 173.442 184.052 167.302 184.532C161.262 185.002 153.732 185.002 144.092 185.002H115.592C105.962 185.002 98.4316 185.002 92.3916 184.532C86.2516 184.052 81.2116 183.062 76.6616 180.852C69.1848 177.256 63.038 171.386 59.1016 164.082C56.6716 159.512 55.6316 154.452 55.1416 148.282L55.1216 147.982C54.95 146.513 54.9601 145.029 55.1516 143.562C55.3716 142.232 55.8516 140.812 56.4716 139.612C57.2116 138.212 58.2216 137.042 59.2716 135.842L59.5016 135.582L60.2016 134.782C63.7716 130.692 66.6716 127.382 69.2316 124.912C71.8716 122.382 74.5116 120.382 77.7116 119.262C82.6753 117.533 88.0779 117.533 93.0416 119.262C96.2416 120.382 98.8816 122.382 101.512 124.912C104.082 127.382 106.972 130.692 110.552 134.782L110.702 134.962C110.927 135.203 111.199 135.397 111.5 135.533C111.801 135.668 112.126 135.743 112.456 135.752C112.786 135.761 113.114 135.705 113.423 135.587C113.731 135.468 114.013 135.29 114.252 135.062L140.752 108.892C144.142 105.532 146.902 102.802 149.332 100.772C151.842 98.6722 154.332 97.0222 157.242 96.0922ZM168.322 105.622C165.703 104.791 162.891 104.791 160.272 105.622C159.102 105.992 157.772 106.742 155.752 108.442C153.672 110.172 151.202 112.612 147.622 116.142L121.282 142.182C120.07 143.37 118.63 144.298 117.049 144.912C115.467 145.525 113.777 145.81 112.082 145.749C110.387 145.688 108.722 145.283 107.188 144.558C105.655 143.833 104.285 142.804 103.162 141.532C99.4016 137.232 96.7916 134.252 94.5816 132.122C92.4116 130.032 90.9816 129.142 89.7516 128.712C86.9184 127.725 83.8348 127.725 81.0016 128.712C79.7616 129.142 78.3416 130.032 76.1616 132.122C73.9616 134.252 71.3416 137.222 67.5816 141.532L67.0416 142.162C65.6216 143.792 65.4516 144.022 65.3416 144.262C65.1971 144.558 65.0896 144.87 65.0216 145.192C64.9816 145.422 64.9616 145.622 65.1116 147.492C65.5516 153.042 66.4116 156.542 67.9316 159.372C70.7816 164.712 75.3516 169.092 81.0316 171.862C83.9816 173.292 87.6116 174.132 93.1616 174.562C98.7716 175.002 105.912 175.002 115.812 175.002H143.882C153.782 175.002 160.912 175.002 166.522 174.562C172.082 174.132 175.712 173.292 178.662 171.862C184.239 169.183 188.824 164.807 191.762 159.362C194.392 154.452 194.932 147.902 194.992 133.322C194.992 131.102 194.962 130.822 194.912 130.602C194.835 130.272 194.703 129.958 194.522 129.672C194.382 129.452 194.172 129.202 192.542 127.592L180.972 116.152C178.359 113.482 175.647 110.91 172.842 108.442C170.812 106.742 169.492 105.992 168.322 105.622Z" fill="#71717B"/>
</svg>
